<?xml version="1.0" encoding="UTF-8"?>
<!DOCTYPE svg PUBLIC "-//W3C//DTD SVG 1.1//EN" "http://www.w3.org/Graphics/SVG/1.1/DTD/svg11.dtd">
<svg xmlns="http://www.w3.org/2000/svg" version="1.1" width="1100px" height="1400px" style="shape-rendering:geometricPrecision; text-rendering:geometricPrecision; image-rendering:optimizeQuality; fill-rule:evenodd; clip-rule:evenodd" xmlns:xlink="http://www.w3.org/1999/xlink">
<g><path style="opacity:0.993" fill="#e11e26" d="M 605.5,293.5 C 568.811,329.682 534.478,367.848 502.5,408C 510.135,403.454 518.135,399.12 526.5,395C 541.386,389.466 556.386,389.132 571.5,394C 584.323,400.168 591.823,410.334 594,424.5C 595.522,445.892 591.522,466.226 582,485.5C 561.823,523.186 542.156,561.186 523,599.5C 498.523,650.263 479.19,702.929 465,757.5C 458.772,788.559 459.106,819.559 466,850.5C 475.227,883.5 494.06,909.333 522.5,928C 527.618,931.143 533.118,933.309 539,934.5C 540.03,934.836 540.53,935.503 540.5,936.5C 524.638,934.379 509.638,929.546 495.5,922C 481.813,912.823 468.479,903.156 455.5,893C 376.531,828.367 303.698,757.201 237,679.5C 225.71,665.927 216.71,650.927 210,634.5C 208.356,629.923 207.022,625.256 206,620.5C 205.333,608.5 205.333,596.5 206,584.5C 208.231,569.911 211.564,555.578 216,541.5C 232.158,499.172 253.491,459.839 280,423.5C 357.569,321.252 455.069,244.419 572.5,193C 589.178,186.663 606.178,181.33 623.5,177C 634.167,176.333 644.833,176.333 655.5,177C 676.836,183.172 683.669,196.672 676,217.5C 673.73,222.098 671.063,226.431 668,230.5C 646.938,251.395 626.105,272.395 605.5,293.5 Z"/></g>
<g><path style="opacity:0.995" fill="#1b1463" d="M 605.5,293.5 C 624.477,306.002 642.81,319.502 660.5,334C 737,397.167 806.833,467 870,543.5C 875.396,551.234 880.396,559.234 885,567.5C 893.143,586.022 895.809,605.355 893,625.5C 890.335,637.493 886.002,648.826 880,659.5C 866.205,679.409 851.205,698.409 835,716.5C 770.093,789.087 699.259,854.921 622.5,914C 597.949,931.346 570.615,938.846 540.5,936.5C 540.53,935.503 540.03,934.836 539,934.5C 533.118,933.309 527.618,931.143 522.5,928C 494.06,909.333 475.227,883.5 466,850.5C 459.106,819.559 458.772,788.559 465,757.5C 479.19,702.929 498.523,650.263 523,599.5C 542.156,561.186 561.823,523.186 582,485.5C 591.522,466.226 595.522,445.892 594,424.5C 591.823,410.334 584.323,400.168 571.5,394C 556.386,389.132 541.386,389.466 526.5,395C 518.135,399.12 510.135,403.454 502.5,408C 534.478,367.848 568.811,329.682 605.5,293.5 Z"/></g>
<g><path style="opacity:0.969" fill="#221f1f" d="M 828.5,1040.5 C 850.187,1039.21 871.187,1042.38 891.5,1050C 892.122,1051.57 892.456,1053.24 892.5,1055C 891.79,1065.91 890.623,1076.74 889,1087.5C 867.169,1072.06 843.336,1068.22 817.5,1076C 793.691,1086.68 781.691,1105.18 781.5,1131.5C 783.101,1169.6 802.935,1189.6 841,1191.5C 846.942,1191.61 852.775,1190.94 858.5,1189.5C 859.499,1175.85 859.833,1162.18 859.5,1148.5C 847.833,1148.5 836.167,1148.5 824.5,1148.5C 824.5,1138.5 824.5,1128.5 824.5,1118.5C 847.5,1118.5 870.5,1118.5 893.5,1118.5C 893.833,1150.51 893.5,1182.51 892.5,1214.5C 881.883,1218.59 870.883,1221.09 859.5,1222C 832.983,1225.97 807.983,1221.64 784.5,1209C 754.082,1186.63 741.249,1156.46 746,1118.5C 750.733,1082.78 769.9,1058.61 803.5,1046C 811.828,1043.51 820.162,1041.67 828.5,1040.5 Z"/></g>
<g><path style="opacity:0.971" fill="#221f1f" d="M 517.5,1041.5 C 536.104,1040.1 554.27,1042.1 572,1047.5C 571.226,1057.47 570.226,1067.47 569,1077.5C 554.488,1070.66 539.321,1068.5 523.5,1071C 509.309,1075.56 504.143,1085.06 508,1099.5C 509.458,1101.96 511.291,1104.13 513.5,1106C 527.964,1113.05 542.631,1119.71 557.5,1126C 577.138,1137.53 585.305,1154.7 582,1177.5C 577.775,1199.73 564.608,1213.56 542.5,1219C 518.438,1223.43 494.771,1221.93 471.5,1214.5C 472.928,1204.22 474.095,1193.89 475,1183.5C 475.333,1183.17 475.667,1182.83 476,1182.5C 493.502,1192.95 512.002,1195.45 531.5,1190C 547.842,1180.65 549.509,1169.31 536.5,1156C 522.768,1149.14 508.768,1142.8 494.5,1137C 474.038,1125 465.872,1107.17 470,1083.5C 472.774,1066.06 482.274,1053.9 498.5,1047C 504.828,1044.67 511.162,1042.84 517.5,1041.5 Z"/></g>
<g><path style="opacity:0.98" fill="#221f1f" d="M 205.5,1044.5 C 224.41,1044.17 243.243,1044.51 262,1045.5C 275.081,1088.41 288.747,1131.07 303,1173.5C 316.501,1130.83 330.001,1088.16 343.5,1045.5C 362.488,1044.5 381.488,1044.17 400.5,1044.5C 400.5,1102.5 400.5,1160.5 400.5,1218.5C 389.167,1218.5 377.833,1218.5 366.5,1218.5C 366.667,1171.5 366.5,1124.5 366,1077.5C 350.323,1124.36 335.156,1171.36 320.5,1218.5C 308.586,1218.82 296.753,1218.49 285,1217.5C 270.202,1171.44 255.202,1125.44 240,1079.5C 239.5,1125.83 239.333,1172.17 239.5,1218.5C 228.167,1218.5 216.833,1218.5 205.5,1218.5C 205.5,1160.5 205.5,1102.5 205.5,1044.5 Z"/></g>
<g><path style="opacity:0.979" fill="#221f1f" d="M 651.5,1044.5 C 663.5,1044.5 675.5,1044.5 687.5,1044.5C 687.5,1102.5 687.5,1160.5 687.5,1218.5C 675.5,1218.5 663.5,1218.5 651.5,1218.5C 651.5,1160.5 651.5,1102.5 651.5,1044.5 Z"/></g>
</svg>
